<?xml version="1.0" encoding="utf-8"?>
<!-- Designed by Vexels.com - 2020 All Rights Reserved - https://vexels.com/terms-and-conditions/  -->
<svg version="1.1" id="Layer_1" xmlns="http://www.w3.org/2000/svg" xmlns:xlink="http://www.w3.org/1999/xlink" x="0px" y="0px"
	 viewBox="0 0 1200 1200" enable-background="new 0 0 1200 1200" xml:space="preserve">
<g>
	<path fill="#0B242F" d="M1149.168,526.005c-0.284-0.826-0.637-1.581-1.086-2.313c-3.329-5.901-10.528-8.71-17.139-6.35
		l-110.452,39.398H179.53L69.055,517.342c-6.609-2.361-13.81,0.448-17.137,6.35c-0.45,0.732-0.803,1.487-1.086,2.313
		c-2.644,7.413,1.226,15.58,8.639,18.224l111.774,39.847c1.676,0.779,3.494,1.203,5.453,1.203h63.451l16.616,15.499
		c-14.257,7.199-24.055,21.94-24.055,39.003c0,24.141,19.569,43.711,43.71,43.711c24.141,0,43.711-19.571,43.711-43.711
		c0-16.93-9.644-31.582-23.721-38.841c1.874-5.353,3.972-11.664,5.492-15.661h613.443c1.52,3.997,3.618,10.308,5.492,15.661
		c-14.077,7.259-23.721,21.912-23.721,38.841c0,24.141,19.571,43.711,43.711,43.711c24.141,0,43.71-19.571,43.71-43.711
		c0-17.062-9.799-31.803-24.055-39.003l16.616-15.499h44.526c0.165,0,0.33-0.023,0.496-0.023c1.865,0.095,3.776-0.142,5.641-0.803
		l112.766-40.223C1147.941,541.585,1151.813,533.418,1149.168,526.005z"/>
</g>
</svg>
